# xmcd
#
# Track frame offsets:
# 150
# 17415
# 31502
# 48726
# 64690
# 83464
# 96826
# 115212
# 128937
# 144652
# 166705
#
# Disc length: 2319 seconds
#
#
# Revision: 2
# Processed by: cddbd v1.5.1PL2 Copyright (c) Steve Scherf et al.
# Submitted via: FreeRIP 2.944 
#
DISCID=81090d0b
DTITLE=Rodney Crowell - Jewel of the South
DYEAR=1995
DGENRE=Country
TTITLE0=Say You Love Me
TTITLE1=Candy Man
TTITLE2=Please Remember Me
TTITLE3=The Ballad of Possum Potez
TTITLE4=Thinking About Leaving
TTITLE5=The Ladder of Love
TTITLE6=Just Say Yes
TTITLE7=Storm of Love
TTITLE8=Love to Burn
TTITLE9=Jewel of the South
TTITLE10=Que Es Amor (What Is Love)
EXTD=Guests-- Kim Richey, Billy Joe Walker Jr., Bela Flek, Matt Rollings.
EXTT0=
EXTT1=
EXTT2=
EXTT3=
EXTT4=
EXTT5=
EXTT6=
EXTT7=
EXTT8=
EXTT9=
EXTT10=
PLAYORDER=
